<?xml version="1.0" standalone="no"?><!DOCTYPE svg PUBLIC "-//W3C//DTD SVG 1.1//EN" "http://www.w3.org/Graphics/SVG/1.1/DTD/svg11.dtd"><svg t="1617676551049" class="icon" viewBox="0 0 1024 1024" version="1.1" xmlns="http://www.w3.org/2000/svg" p-id="1156" xmlns:xlink="http://www.w3.org/1999/xlink" width="16" height="16"><defs><style type="text/css"></style></defs><path d="M512 1024C229.222 1024 0 794.778 0 512S229.222 0 512 0s512 229.222 512 512-229.222 512-512 512zM282.88 580.378c18.176-15.642 27.264-36.148 27.264-61.44 0-20.352-6.016-36.864-17.946-49.613-11.98-12.723-27.93-20.224-47.872-22.58v-0.819c15.975-5.222 28.468-14.003 37.556-26.393 9.062-12.365 13.593-26.931 13.593-43.725 0-20.07-7.475-36.352-22.477-48.896-15.001-12.544-35.25-18.765-60.825-18.765h-84.147v295.757h86.195c27.648 0 50.534-7.834 68.685-23.526zM162.662 339.482h39.834c37.811 0 56.704 14.387 56.704 43.11 0 16.64-5.427 29.517-16.282 38.656-10.854 9.165-25.779 13.722-44.748 13.722h-35.508v-95.488z m0 126.643h39.834c47.565 0 71.347 17.485 71.347 52.377 0 16.794-5.606 29.978-16.793 39.604-11.239 9.625-26.983 14.438-47.36 14.438h-47.002v-106.42zM365.62 307.533v296.371h33.792V307.533H365.62zM632.806 573.9c19.021-20.275 28.57-47.258 28.57-80.922 0-34.406-8.858-61.286-26.496-80.64-17.69-19.405-42.24-29.081-73.728-29.081-33.024 0-59.213 9.984-78.592 29.9-19.38 19.968-29.082 47.642-29.082 83.124 0 32.563 9.319 58.752 27.956 78.464 18.61 19.712 43.545 29.593 74.752 29.593 32.025 0 57.574-10.163 76.62-30.438zM488.116 495c0-25.983 6.322-46.361 18.969-61.132 12.646-14.797 29.824-22.195 51.558-22.195 21.863 0 38.682 7.168 50.432 21.452 11.776 14.31 17.639 34.663 17.639 61.056 0 26.112-5.888 46.26-17.664 60.416-11.725 14.157-28.544 21.248-50.407 21.248-21.453 0-38.579-7.193-51.353-21.632-12.8-14.464-19.175-34.176-19.175-59.212z m407.526 87.45V388.198h-33.818v29.261h-0.82c-13.772-22.81-34.866-34.227-63.334-34.227-29.952 0-53.58 10.598-70.835 31.744-17.254 21.197-25.856 49.715-25.856 85.606 0 31.616 7.987 56.832 24.013 75.597 16.026 18.765 37.171 28.16 63.411 28.16 32.333 0 56.525-13.491 72.627-40.448h0.82v23.117c0 21.658-3.994 39.066-12.007 52.224l-17.075 18.074-0.742 0.512c-5.35 3.302-43.188 24.499-97.383-0.41-58.573-26.957-141.875-29.184-162.406 41.395l24.166 18.586s0-33.203 37.427-46.49c27.802-9.856 58.061 2.611 81.997 12.877v0.128c6.912 3.507 14.183 6.374 21.863 8.627l0.384 0.103a168.448 168.448 0 0 0 46.233 6.144c74.215 0 111.335-38.784 111.335-116.327z m-51.661-26.803c-11.904 13.466-27.341 20.224-46.31 20.224-18.689 0-33.716-7.066-45.057-21.171-11.34-14.08-17.024-32.87-17.024-56.397 0-27.366 5.888-48.64 17.741-63.82 11.827-15.182 28.16-22.785 49.075-22.785 16.922 0 31.028 5.965 42.394 17.92a60.416 60.416 0 0 1 17.024 43.11v31.156c0 21.017-5.965 38.272-17.843 51.763z" fill="#62AFFE" p-id="1157"></path></svg>