<?xml version="1.0" standalone="no"?><!DOCTYPE svg PUBLIC "-//W3C//DTD SVG 1.1//EN" "http://www.w3.org/Graphics/SVG/1.1/DTD/svg11.dtd"><svg t="1616118027488" class="icon" viewBox="0 0 1024 1024" version="1.1" xmlns="http://www.w3.org/2000/svg" p-id="2537" xmlns:xlink="http://www.w3.org/1999/xlink" width="16" height="16"><defs><style type="text/css"></style></defs><path d="M601.315556 512h166.684444a28.444444 28.444444 0 1 0 0-56.888889h-398.222222a28.444444 28.444444 0 0 0 0 56.888889h174.648889v113.777778H341.333333a28.444444 28.444444 0 1 0 0 56.888889h203.093334v156.273777a28.444444 28.444444 0 1 0 56.888889 0V682.666667H796.444444a28.444444 28.444444 0 1 0 0-56.888889h-195.128888V512zM56.888889 796.444444h113.777778a56.888889 56.888889 0 0 0 0-113.777777H56.888889v-113.777778h113.777778a56.888889 56.888889 0 1 0 0-113.777778H56.888889V341.333333h113.777778a56.888889 56.888889 0 1 0 0-113.777777H56.888889V170.666667a113.777778 113.777778 0 0 1 113.777778-113.777778h682.666666a113.777778 113.777778 0 0 1 113.777778 113.777778v682.666666a113.777778 113.777778 0 0 1-113.777778 113.777778H170.666667a113.777778 113.777778 0 0 1-113.777778-113.777778v-56.888889z m322.787555-538.282666L538.737778 394.638222a56.888889 56.888889 0 0 0 76.231111-1.934222l152.064-144.497778a28.444444 28.444444 0 0 0-39.196445-41.244444l-152.064 144.497778-159.004444-136.533334a28.444444 28.444444 0 1 0-37.091556 43.235556z" p-id="2538"></path></svg>