<?xml version="1.0" standalone="no"?><!DOCTYPE svg PUBLIC "-//W3C//DTD SVG 1.1//EN" "http://www.w3.org/Graphics/SVG/1.1/DTD/svg11.dtd"><svg t="1610936901755" class="icon" viewBox="0 0 1536 1024" version="1.1" xmlns="http://www.w3.org/2000/svg" p-id="18959" xmlns:xlink="http://www.w3.org/1999/xlink" width="300" height="200"><defs><style type="text/css"></style></defs><path d="M1275.364783 566.262329c-5.601125-1.783215-42.865754 9.87627-16.940546-71.602955h-0.297203c57.611574-81.387779 101.528968-150.887455 101.528968-244.917774 0-144.577616-96.01929-218.375299-207.630283-218.375299-19.866848 0-38.864951 4.275145-57.337232 9.007524 44.831864 41.151124 73.843406 97.962537 73.843406 181.179255 0 104.523855-23.410417 202.920765-87.377554 288.789444-24.736398 31.114822-17.397781 80.404724 7.978746 87.217522 138.633565 37.01315 254.451117 128.642986 286.731888 219.838449l2.491929 25.559421c0 35.984372-42.728584 66.984885-59.966332 89.160769 126.425398-12.871157 214.283048-45.723471 214.283047-120.138421V783.47168c0-78.484338-134.724208-176.469737-257.308834-217.186489z m-294.916389 58.937555c-6.286977-2.080418-46.180706-20.095466-21.238553-95.859258h-0.434373c64.858744-66.893438 114.46871-174.686522 114.468711-280.742113C1073.312764 85.457168 965.062446 0 839.140006 0s-233.646938 85.457168-233.646938 248.598513c0 106.444241 49.358487 214.648836 114.60588 281.450827 25.445112 66.893438-20.095466 91.584113-29.720256 95.150544-131.752182 47.712442-286.503271 134.74707-286.503271 220.684334v32.235047c0 116.983501 226.5598 143.686008 436.316225 143.686008s433.824295-26.542475 433.824295-143.686008V845.884218c0.297203-88.452055-155.1626-174.869416-293.498962-220.707196z m-462.241433-177.612824h-211.356746v-210.670894H210.327968v210.670894H0v97.551026h210.327968v210.716617h96.499386v-210.716617h211.356745z" p-id="18960"></path></svg>