<?xml version="1.0" standalone="no"?><!DOCTYPE svg PUBLIC "-//W3C//DTD SVG 1.1//EN" "http://www.w3.org/Graphics/SVG/1.1/DTD/svg11.dtd"><svg t="1610935649555" class="icon" viewBox="0 0 1110 1024" version="1.1" xmlns="http://www.w3.org/2000/svg" p-id="6956" xmlns:xlink="http://www.w3.org/1999/xlink" width="216.796875" height="200"><defs><style type="text/css"></style></defs><path d="M202.27343777 244.3203125H597.07812473c29.3203125 0 53.15625-24.890625 53.15625-55.6875V145.8125c0-30.93750027-23.8359375-55.6875-53.15625-55.6875H202.27343777C172.95312527 90.125 149.04687473 115.08593723 149.04687473 145.8125v42.89062473c0 30.93750027 23.90624973 55.61718777 53.22656304 55.61718777z m327.1640625 200.53125027c17.9296875-21.9375 38.8125-41.20312473 61.87499973-57.1640625v-41.34375c0-30.93750027-23.76562527-55.6875-53.08593777-55.6875H143.28125c-29.3203125 0-53.15625 24.890625-53.15625 55.6875v42.89062473c0 30.86718723 23.8359375 55.61718777 53.15625 55.61718777h386.15625027z m-380.39062554 101.95312473v42.89062473c0 30.93750027 23.8359375 55.6875 53.15625 55.6875h256.42968777c0-56.25000027 14.34375-108.84375 39.4453125-154.26562473H202.27343777c-29.3203125 0-53.22656223 24.96093723-53.22656304 55.6875z m23.69531304 144.84375027c-29.3203125 0-53.15625 24.890625-53.15625 55.6875v42.89062473c0 30.86718723 23.8359375 55.61718777 53.15625 55.61718777h356.6953125a313.875 313.875 0 0 1-67.5-154.1953125H172.74218777z m580.78124973-308.46093804c-138.375 0-250.59375 117.42187527-250.59375 262.1953125 0 144.84375027 112.21875 262.1953125 250.59375 262.1953125 138.44531223 0 250.66406223-117.42187527 250.66406223-262.1953125 0-144.84375027-112.21875-262.26562473-250.66406223-262.26562473z m99.984375 305.15625027c10.89843777 0 19.68749973 8.71874973 19.68749973 19.40625a19.54687527 19.54687527 0 0 1-19.68749973 19.40625H782.70312473v42.1875c0 14.34375-11.74218777 25.9453125-26.29687446 25.9453125a26.15625 26.15625 0 0 1-26.29687527-26.01562473V727.15625H659.30468723a19.54687527 19.54687527 0 0 1-19.68749973-19.40625c0-10.68750027 8.78906277-19.40625 19.68749973-19.40625h70.80468777V660.35937473H659.30468723a19.54687527 19.54687527 0 0 1-19.68749973-19.40625c0-10.7578125 8.78906277-19.40625 19.68749973-19.40625h70.80468777v-21.79687473L658.88281223 528.17187527a22.359375 22.359375 0 0 1 0.28125054-31.92187554 23.203125 23.203125 0 0 1 32.484375 0.28125054l64.7578125 64.96875 64.82812473-64.96875a23.203125 23.203125 0 0 1 32.41406277-0.28125054c9.0703125 8.71874973 9.14062473 23.06249973 0.35156196 31.92187554L782.70312473 599.67968777v21.79687473h70.73437554c10.89843777 0 19.68749973 8.6484375 19.68749973 19.40625a19.54687527 19.54687527 0 0 1-19.68749973 19.40625H782.77343777v28.12499973h70.6640625z" p-id="6957"></path></svg>