<?xml version="1.0" standalone="no"?><!DOCTYPE svg PUBLIC "-//W3C//DTD SVG 1.1//EN" "http://www.w3.org/Graphics/SVG/1.1/DTD/svg11.dtd"><svg t="1616118222020" class="icon" viewBox="0 0 1024 1024" version="1.1" xmlns="http://www.w3.org/2000/svg" p-id="4220" xmlns:xlink="http://www.w3.org/1999/xlink" width="16" height="16"><defs><style type="text/css"></style></defs><path d="M287.232 314.88l161.28-121.344c44.032-32.256 102.912-40.96 154.112-22.016l256 97.28c16.384 6.144 34.304 9.728 51.712 9.728h42.496c12.288 0 23.04 9.728 23.04 22.016v312.832c0 12.288-10.752 23.04-23.04 23.04h-55.808c-7.68 0-15.872 2.56-22.016 7.68l-12.288 10.752c-2.56 2.56-7.68 2.048-10.752-1.024L552.96 291.84c-7.68-9.728-20.992-11.264-30.72-5.632L386.048 361.472c-27.136 15.36-60.928 16.896-89.6 4.608-15.36-7.168-23.04-24.576-15.872-39.936-0.512-5.12 3.072-8.704 6.656-11.264z m-211.456 318.976h48.128l33.28-40.96c29.696-36.352 84.48-40.96 121.344-11.264 13.312 11.264 23.552 26.112 28.16 43.008 28.672 7.68 52.224 29.696 60.928 58.88 20.992 6.144 39.424 19.456 50.176 39.424 18.432 2.56 34.816 11.776 48.128 24.064 27.136 28.672 33.28 71.68 12.288 107.008l-4.608 8.704v1.024c23.04 14.848 52.736 10.752 69.12-12.288 7.68-11.264 10.752-24.064 7.68-37.376v-1.024h1.024l3.584 3.584c16.896 16.896 44.032 19.456 64.512 6.144 15.872-11.264 23.552-30.208 20.48-49.664v-1.024h1.024l3.584 3.584c17.408 16.896 43.52 19.456 64.512 6.144 15.872-11.264 24.576-30.72 20.992-49.664v-1.024h1.024l3.584 3.584c16.384 15.872 40.96 18.944 60.928 7.68 23.04-13.824 30.72-43.52 17.408-67.072-1.536-3.072-3.584-5.632-5.632-8.704l-29.696-36.352L532.48 335.872c-2.56-2.56-6.144-3.584-10.752-2.048l-118.272 66.56c-37.376 20.992-81.92 24.064-122.368 9.728-23.04-7.68-39.424-25.088-48.128-47.104-7.168-23.04-3.584-47.104 8.704-66.56 2.56-5.12 1.024-12.288-4.096-14.848h-0.512c-2.048-1.024-3.584-1.024-5.632-1.024H71.68c-12.288 0-23.04 9.728-23.04 22.016V614.4c4.608 10.24 15.36 19.456 27.136 19.456z m169.984-22.528c-18.432-10.752-41.472-5.632-54.784 11.264l-33.28 39.936c-14.336 17.92-12.288 44.032 5.632 57.856h1.024l4.608 3.584c13.312 10.752 31.744 11.264 46.08 3.584 1.024-1.024 2.048 0 2.56 1.024v2.048c-3.072 15.36 3.072 30.208 15.36 39.936l3.584 2.56c13.312 10.752 29.696 11.264 45.056 4.608 1.024-1.024 2.56 0 2.56 1.024v1.024c-2.048 14.336 4.608 27.648 15.872 37.376l2.56 2.048c13.312 10.752 29.696 12.288 45.056 3.584 1.024-1.024 2.56 0 2.56 1.024v1.024c2.048 10.752 7.68 19.456 15.872 26.112l2.048 1.024c18.944 14.336 45.056 11.264 59.392-7.68 1.024-1.536 2.048-3.072 3.584-4.608l5.632-10.752c10.752-17.92 7.68-39.424-7.68-53.248-12.288-11.264-29.696-14.336-46.592-7.68-1.024 0-1.024 0-2.048-1.024v-1.024c1.024-23.04-16.896-41.984-39.424-44.032-5.632 0-11.264 1.024-16.896 2.56-7.168 1.024-4.608-4.608-4.608-4.608 8.704-22.016-1.024-44.544-23.04-54.272-11.776-4.608-24.576-3.584-35.84 2.048-4.608 1.024-3.584-3.584-3.584-3.584 14.848-15.872 8.192-40.96-11.264-52.736z" p-id="4221"></path></svg>