<?xml version="1.0" standalone="no"?><!DOCTYPE svg PUBLIC "-//W3C//DTD SVG 1.1//EN" "http://www.w3.org/Graphics/SVG/1.1/DTD/svg11.dtd"><svg t="1610935944490" class="icon" viewBox="0 0 1024 1024" version="1.1" xmlns="http://www.w3.org/2000/svg" p-id="8737" xmlns:xlink="http://www.w3.org/1999/xlink" width="200" height="200"><defs><style type="text/css"></style></defs><path d="M981 216H862.6v127.5c0 18.2-13.7 36.4-27.3 36.4S808 366.3 808 343.5V216H689.6c-22.8 0-41-13.7-41-27.3 0-13.7 18.2-27.3 41-27.3H808V43c0-22.8 13.7-36.4 27.3-36.4s27.3 18.2 27.3 36.4v122.9H981c22.8 0 41 13.7 41 27.3 0 13.7-18.2 22.8-41 22.8M648.6 334.4L521.1 466.5h104.7c18.2 0 36.4 13.7 36.4 36.4 0 18.2-13.7 36.4-36.4 36.4H521.1v68.3h104.7c18.2 0 36.4 13.7 36.4 36.4 0 18.2-13.7 36.4-36.4 36.4H521.1v100.2c0 18.2-13.7 36.4-36.4 36.4s-36.4-13.7-36.4-36.4V680.5H348.1c-18.2 0-36.4-13.7-36.4-36.4 0-18.2 13.7-36.4 36.4-36.4h100.2v-68.3H348.1c-18.2 0-36.4-13.7-36.4-36.4 0-18.2 13.7-36.4 36.4-36.4h100.2V462l-123-127.6c-13.7-13.7-13.7-36.4 0-50.1 13.7-13.7 36.4-13.7 50.1 0l113.8 113.8 109.3-113.8c13.7-13.7 36.4-13.7 50.1 0 13.7 18.2 13.7 36.5 0 50.1M498.3 124.9h-13.7C257 124.9 70.3 311.6 70.3 539.3S257 953.7 484.7 953.7 899.1 767 899.1 539.3c0-18.2 13.7-31.9 36.4-31.9 18.2 0 31.9 13.7 31.9 31.9V512v22.8c0 264.1-214 482.7-482.7 482.7C220.6 1017.4 2 803.4 2 534.8 2 275.2 220.6 56.6 484.7 56.6h13.7c18.2 0 36.4 13.7 36.4 36.4-4.6 18.3-18.2 31.9-36.5 31.9" p-id="8738"></path></svg>